<?xml version="1.0" standalone="no"?><!DOCTYPE svg PUBLIC "-//W3C//DTD SVG 1.1//EN" "http://www.w3.org/Graphics/SVG/1.1/DTD/svg11.dtd"><svg class="icon" width="200px" height="200.00px" viewBox="0 0 1024 1024" version="1.1" xmlns="http://www.w3.org/2000/svg"><path fill="#333333" d="M973.517653 631.125333H49.812764a21.560889 21.560889 0 0 1-17.863111-33.450666L197.723876 350.833778a21.560889 21.560889 0 0 1 17.863111-9.614222h592.213333c7.168 0 13.880889 3.640889 17.863111 9.671111l165.717333 246.784c4.778667 6.826667 5.176889 15.701333 1.137778 22.926222a21.333333 21.333333 0 0 1-19.000889 10.524444zM90.203876 588.515556h842.752l-137.557334-203.719112h-568.32L90.203876 588.515556z m883.313777 215.210666H49.812764a21.333333 21.333333 0 0 1-17.863111-33.450666l82.716445-123.562667a21.560889 21.560889 0 0 1 36.010666 22.926222l-60.529777 89.884445h842.979555l-60.529778-89.884445a21.560889 21.560889 0 0 1 5.973334-29.752889 22.926222 22.926222 0 0 1 30.037333 5.688889l82.716445 123.562667a22.926222 22.926222 0 0 1 1.137777 22.926222 21.560889 21.560889 0 0 1-19.000889 11.662222z m0 169.813334H49.812764a21.560889 21.560889 0 0 1-17.863111-33.450667l75.377778-112.526222a22.926222 22.926222 0 0 1 30.037333-5.973334 22.926222 22.926222 0 0 1 5.688889 30.037334l-52.906666 78.848h842.979555l-60.529778-89.884445a21.560889 21.560889 0 1 1 36.010667-22.869333l82.716445 123.505778c4.778667 6.826667 5.176889 15.701333 1.137777 22.926222a21.333333 21.333333 0 0 1-19.000889 9.386667zM159.210098 312.604444a100.864 100.864 0 1 1 0-201.728 100.864 100.864 0 0 1 0 201.728z m0-158.606222a57.742222 57.742222 0 1 0 0 115.484445 57.742222 57.742222 0 0 0 0-115.484445z m701.553778 158.606222a100.864 100.864 0 1 1 0-201.728 100.864 100.864 0 0 1 0 201.728z m0-158.606222a57.742222 57.742222 0 1 0 0 115.484445 57.742222 57.742222 0 0 0 0-115.484445zM511.693653 238.535111a118.044444 118.044444 0 1 1 0-236.088889 118.044444 118.044444 0 0 1 0 236.088889z m0-192.739555A74.922667 74.922667 0 1 0 511.181653 195.697778 74.922667 74.922667 0 0 0 511.693653 45.795556zM511.693653 558.478222a21.560889 21.560889 0 0 1-21.560889-21.504v-320.853333a21.560889 21.560889 0 1 1 43.121778 0v320.853333a21.560889 21.560889 0 0 1-21.617778 21.504z m-146.204444-29.980444h-3.242667a21.105778 21.105778 0 0 1-18.090666-24.291556c28.444444-189.553778-94.208-234.268444-99.498667-236.088889a21.788444 21.788444 0 0 1 13.994667-41.016889c1.592889 0 162.019556 57.059556 128.113777 283.306667a22.926222 22.926222 0 0 1-21.276444 18.090667z m306.176-1.422222a21.560889 21.560889 0 0 1-21.333333-18.318223c-33.905778-226.190222 126.520889-282.567111 128.113777-283.306666a21.617778 21.617778 0 0 1 13.767111 41.073777c-5.290667 1.820444-127.658667 45.852444-99.214222 235.804445a21.333333 21.333333 0 0 1-18.147555 24.519111l-3.185778 0.227556z" /></svg>