<?xml version="1.0" standalone="no"?><!DOCTYPE svg PUBLIC "-//W3C//DTD SVG 1.1//EN" "http://www.w3.org/Graphics/SVG/1.1/DTD/svg11.dtd"><svg class="icon" width="200px" height="200.00px" viewBox="0 0 1024 1024" version="1.1" xmlns="http://www.w3.org/2000/svg"><path fill="#333333" d="M952.832569 990.606222a21.902222 21.902222 0 0 1-22.016-21.959111V489.813333l-246.727111-141.710222V465.351111c0 7.338667-4.892444 14.677333-12.231111 19.569778a18.318222 18.318222 0 0 1-22.016 0L398.222791 348.103111v114.801778c0 7.338667-4.892444 14.677333-12.231111 19.569778a18.318222 18.318222 0 0 1-21.959111 0L102.628124 348.103111v622.933333a21.902222 21.902222 0 0 1-22.016 22.016 21.902222 21.902222 0 0 1-21.959111-21.959111V311.409778c0-7.281778 4.892444-14.620444 12.174223-19.512889a18.318222 18.318222 0 0 1 22.016 0l261.404444 134.371555V311.409778c0-7.281778 4.892444-14.620444 12.231111-19.512889a18.318222 18.318222 0 0 1 21.959111 0l251.676445 136.817778V311.409778c0-7.281778 4.892444-14.620444 12.174222-19.512889a18.318222 18.318222 0 0 1 22.016 0l293.148444 168.561778c7.395556 4.892444 12.231111 12.231111 12.231111 19.569777v491.064889a27.079111 27.079111 0 0 1-26.851555 19.512889z m51.256889 19.569778H21.95968A21.902222 21.902222 0 0 1 0.000569 988.16c0-12.174222 9.784889-21.959111 21.959111-21.959111h979.683556c12.231111 0 22.016 9.784889 22.016 21.959111 0 12.231111-7.338667 22.016-19.569778 22.016z m-544.768-317.610667h-207.644445a21.902222 21.902222 0 0 1-22.016-22.016V558.193778c0-12.231111 9.784889-22.016 21.959111-22.016h207.644445c12.231111 0 22.016 9.784889 22.016 22.016v112.355555c2.446222 12.231111-7.338667 22.016-21.959111 22.016z m-185.685334-46.421333h163.669334v-65.991111H273.636124v65.991111z m503.296 46.421333h-207.644444a21.902222 21.902222 0 0 1-22.016-22.016V558.193778c0-12.231111 9.728-22.016 21.959111-22.016h207.644445c12.231111 0 22.016 9.784889 22.016 22.016v112.355555a21.902222 21.902222 0 0 1-21.959112 22.016z m-185.685333-46.421333h163.669333v-65.991111h-163.669333v65.991111z m-131.982222 254.065778h-207.644445a21.902222 21.902222 0 0 1-21.959111-21.959111v-112.412445c0-12.174222 9.784889-21.959111 21.959111-21.959111h207.644445c12.231111 0 22.016 9.784889 22.016 21.959111v112.412445c2.446222 12.174222-7.338667 21.959111-21.959111 21.959111z m-185.628445-46.421334h163.669334v-65.991111H273.636124v65.991111z m503.296 46.421334h-207.644444a21.902222 21.902222 0 0 1-22.016-21.959111v-112.412445c0-12.174222 9.728-21.959111 21.959111-21.959111h207.644445c12.231111 0 22.016 9.784889 22.016 21.959111v112.412445a21.902222 21.902222 0 0 1-21.959112 21.959111z m-185.685333-46.421334h163.669333v-65.991111h-163.669333v65.991111z m285.013333-688.924444h-106.951111l-19.285333 151.438222c-2.446222 12.231111-12.231111 22.016-24.462222 19.569778-12.174222-2.446222-21.959111-12.231111-19.512889-24.462222l20.48-162.247111a22.186667 22.186667 0 0 1 2.218667-17.635556l13.937777-110.819555c2.446222-12.231111 12.231111-19.569778 22.016-19.569778h122.140445c12.231111 0 22.016 9.784889 22.016 22.016l41.528889 422.684444a24.462222 24.462222 0 0 1-24.462223 24.405334c2.446222 0 2.446222 0 0 0a21.902222 21.902222 0 0 1-21.959111-22.016l-27.648-283.363556z m-4.266666-43.975111L864.882347 47.559111h-80.668445l-9.329778 73.329778h97.109334z" /></svg>