<?xml version="1.0" standalone="no"?><!DOCTYPE svg PUBLIC "-//W3C//DTD SVG 1.1//EN" "http://www.w3.org/Graphics/SVG/1.1/DTD/svg11.dtd"><svg class="icon" width="200px" height="200.00px" viewBox="0 0 1024 1024" version="1.1" xmlns="http://www.w3.org/2000/svg"><path fill="#333333" d="M209.67619 136.533333h165.790477v136.533334h-165.790477zM429.104762 136.533333h165.790476v136.533334h-165.790476zM648.533333 136.533333h165.790477v136.533334h-165.790477zM209.67619 331.580952h165.790477v136.533334h-165.790477zM429.104762 331.580952h165.790476v136.533334h-165.790476zM648.533333 331.580952h165.790477v136.533334h-165.790477zM209.67619 526.628571h165.790477v136.533334h-165.790477zM209.67619 716.8h385.219048v136.533333h-385.219048zM429.104762 526.628571h165.790476v136.533334h-165.790476zM648.533333 526.628571h165.790477v136.533334h-165.790477zM755.809524 994.742857h-487.619048c-92.647619 0-170.666667-78.019048-170.666666-170.666667v-653.409523c0-92.647619 78.019048-170.666667 170.666666-170.666667h487.619048c92.647619 0 170.666667 78.019048 170.666666 170.666667v653.409523c0 92.647619-78.019048 170.666667-170.666666 170.666667z m-487.619048-945.980952c-68.266667 0-121.904762 53.638095-121.904762 121.904762v653.409523c0 68.266667 53.638095 121.904762 121.904762 121.904762h487.619048c68.266667 0 121.904762-53.638095 121.904762-121.904762v-653.409523c0-68.266667-53.638095-121.904762-121.904762-121.904762h-487.619048z" /></svg>