<?xml version="1.0" standalone="no"?><!DOCTYPE svg PUBLIC "-//W3C//DTD SVG 1.1//EN" "http://www.w3.org/Graphics/SVG/1.1/DTD/svg11.dtd"><svg class="icon" width="200px" height="200.00px" viewBox="0 0 1024 1024" version="1.1" xmlns="http://www.w3.org/2000/svg"><path fill="#333333" d="M28.444444 0v420.977778h420.977778v-420.977778h-420.977778z m364.088889 364.088889h-301.511111V62.577778h301.511111v301.511111zM182.044444 153.6h119.466667v119.466667h-119.466667zM568.888889 0v420.977778h420.977778v-420.977778h-420.977778z m364.088889 364.088889h-301.511111V62.577778h301.511111v301.511111zM694.044444 125.155556h182.044445v182.044444h-182.044445zM28.444444 546.133333v420.977778h420.977778v-420.977778h-420.977778z m364.088889 364.088889h-301.511111v-301.511111h301.511111v301.511111zM147.911111 847.644444h182.044445v-182.044444h-182.044445v182.044444z m785.066667-301.511111v182.044445h-182.044445v-182.044445h-182.044444v420.977778h62.577778v-364.088889h62.577777v182.044445h301.511112v-238.933334h-62.577778zM813.511111 665.6h62.577778v-119.466667h-62.577778v119.466667z m-119.466667 301.511111h119.466667v-119.466667h-119.466667v119.466667z m182.044445 0h119.466667v-119.466667h-119.466667v119.466667z" /></svg>