<?xml version="1.0" standalone="no"?><!DOCTYPE svg PUBLIC "-//W3C//DTD SVG 1.1//EN" "http://www.w3.org/Graphics/SVG/1.1/DTD/svg11.dtd"><svg class="icon" width="200px" height="200.00px" viewBox="0 0 1024 1024" version="1.1" xmlns="http://www.w3.org/2000/svg"><path fill="#333333" d="M511.744 1024C230.2976 1024 0 793.7024 0 512.256 0 230.8096 230.2976 0.512 511.744 0.512c281.4464 0 511.744 230.2976 511.744 511.744 0 281.4464-230.2976 511.744-511.744 511.744z m0-972.288C258.4576 51.712 51.2 258.8672 51.2 512.2048 51.2 765.5424 258.4576 972.8 511.744 972.8c253.3376 0 460.5952-207.3088 460.5952-460.5952 0-253.3376-207.2576-460.5952-460.5952-460.5952zM199.5776 714.3936h53.76V274.2784h-53.76v440.1152z m79.36 0h53.7088V274.2784h-53.76v440.1152z m284.0064 0h53.76V274.2784h-53.76v440.1152z m79.3088 0h25.6V274.2784h-25.6v440.1152z m51.2 0h7.68V274.2784h-7.68v440.1152z m-20.48 0h12.8V274.2784h-12.8v440.1152z m-317.2864 0h25.6V274.2784h-25.6v440.1152z m156.0576 0h25.6V274.2784h-25.6v440.1152z m-51.2 0h25.6V274.2784h-25.6v440.1152z m-53.7088 0h7.68V274.2784h-7.68v440.1152z m-17.92 0h12.8V274.2784h-12.8v440.1152z m40.96 0h12.8V274.2784h-12.8v440.1152z m299.3664 0h7.68V274.2784h-7.68v440.1152z m-20.48 0h12.8V274.2784h-12.8v440.1152z m61.44 0h7.68V274.2784h-7.68v440.1152z m-17.92 0h12.8V274.2784h-12.8v440.1152z m53.76 0h7.68V274.2784h-7.68v440.1152z m-17.92 0h12.8V274.2784h-12.8v440.1152z" /></svg>