<?xml version="1.0" standalone="no"?><!DOCTYPE svg PUBLIC "-//W3C//DTD SVG 1.1//EN" "http://www.w3.org/Graphics/SVG/1.1/DTD/svg11.dtd"><svg class="icon" width="200px" height="200.00px" viewBox="0 0 1024 1024" version="1.1" xmlns="http://www.w3.org/2000/svg"><path fill="#333333" d="M891.482353 969.788235h-758.964706c-72.282353 0-132.517647-60.235294-132.517647-132.517647v-512c0-72.282353 60.235294-132.517647 132.517647-132.517647h758.964706c72.282353 0 132.517647 60.235294 132.517647 132.517647v512c0 72.282353-60.235294 132.517647-132.517647 132.517647z m-758.964706-728.847059c-48.188235 0-84.329412 36.141176-84.329412 84.329412v512c0 48.188235 36.141176 84.329412 84.329412 84.329412h758.964706c24.094118 0 42.164706-12.047059 60.235294-24.094118 18.070588-18.070588 24.094118-36.141176 24.094118-60.235294v-512c0-24.094118-12.047059-42.164706-24.094118-60.235294-18.070588-18.070588-36.141176-24.094118-60.235294-24.094118h-758.964706zM825.223529 638.494118c-6.023529 0-12.047059 0-18.070588-6.02353l-114.447059-120.470588c-6.023529-6.023529-6.023529-12.047059-6.023529-24.094118 0-6.023529 6.023529-12.047059 18.070588-18.070588 6.023529 0 18.070588 0 24.094118 6.02353l114.447059 120.470588c6.023529 12.047059 6.023529 24.094118 0 30.117647-6.023529 12.047059-12.047059 12.047059-18.070589 12.047059z m-373.458823 72.282353c-6.023529 0-12.047059 0-18.070588-6.02353-6.023529-12.047059-6.023529-24.094118 0-30.117647l174.682353-186.729412c6.023529-6.023529 24.094118-12.047059 30.117647 0 6.023529 6.023529 12.047059 24.094118 0 30.117647l-180.705883 186.729412c6.023529 0 0 6.023529-6.023529 6.02353z m-78.305882-30.117647c-6.023529 0-12.047059-6.023529-18.070589-6.02353l-132.517647-174.682353c-6.023529-6.023529-6.023529-18.070588-6.023529-24.094117 6.023529-6.023529 12.047059-12.047059 18.070588-12.047059 6.023529 0 18.070588 0 18.070588 12.047059l132.517647 174.682352c6.023529 6.023529 6.023529 18.070588 0 24.094118 0 0-6.023529 6.023529-12.047058 6.02353zM204.8 518.023529c-36.141176 0-66.258824-18.070588-78.305882-54.211764-12.047059-30.117647-6.023529-66.258824 18.070588-90.352941 24.094118-24.094118 60.235294-30.117647 90.352941-18.070589s54.211765 42.164706 54.211765 78.305883c0 48.188235-36.141176 84.329412-84.329412 84.329411z m0-126.494117c-24.094118 0-42.164706 18.070588-42.164706 42.164706s18.070588 42.164706 42.164706 42.164706 42.164706-18.070588 42.164706-42.164706c0-12.047059-6.023529-18.070588-12.047059-30.117647-12.047059-6.023529-18.070588-12.047059-30.117647-12.047059z m192.752941 409.6c-36.141176 0-66.258824-18.070588-78.305882-54.211765-12.047059-30.117647-6.023529-66.258824 18.070588-90.352941 24.094118-24.094118 60.235294-30.117647 90.352941-18.070588s54.211765 42.164706 54.211765 78.305882c0 42.164706-36.141176 84.329412-84.329412 84.329412z m0-126.494118c-24.094118 0-42.164706 18.070588-42.164706 42.164706s18.070588 42.164706 42.164706 42.164706 42.164706-18.070588 42.164706-42.164706c0-12.047059-6.023529-18.070588-12.047059-30.117647-12.047059-6.023529-18.070588-12.047059-30.117647-12.047059z m271.058824-138.541176c-36.141176 0-66.258824-18.070588-78.305883-54.211765-12.047059-30.117647-6.023529-66.258824 18.070589-90.352941 24.094118-24.094118 60.235294-30.117647 90.352941-18.070588s54.211765 42.164706 54.211764 78.305882c0 48.188235-36.141176 84.329412-84.329411 84.329412z m0-120.470589c-18.070588 0-30.117647 12.047059-36.141177 24.094118-6.023529 12.047059 0 30.117647 6.02353 42.164706 12.047059 12.047059 30.117647 12.047059 42.164706 6.023529 12.047059-6.023529 24.094118-18.070588 24.094117-36.141176s-18.070588-36.141176-36.141176-36.141177z m186.729411 343.341177c-36.141176 0-66.258824-18.070588-78.305882-54.211765-12.047059-30.117647-6.023529-66.258824 18.070588-90.352941 24.094118-24.094118 60.235294-30.117647 90.352942-18.070588s54.211765 42.164706 54.211764 78.305882c0 42.164706-36.141176 84.329412-84.329412 84.329412z m0-126.494118c-18.070588 0-30.117647 6.023529-36.141176 24.094118-6.023529 12.047059-6.023529 30.117647 6.023529 42.164706 12.047059 12.047059 30.117647 18.070588 42.164706 6.023529 12.047059-6.023529 24.094118-18.070588 24.094118-36.141176s-12.047059-36.141176-36.141177-36.141177z m18.070589-487.905882h-728.847059c-12.047059 0-18.070588-12.047059-18.070588-24.094118s6.023529-24.094118 18.070588-24.094117h728.847059c12.047059 0 18.070588 12.047059 18.070588 24.094117s-12.047059 24.094118-18.070588 24.094118z m-84.329412-96.376471h-560.188235c-12.047059 0-24.094118-12.047059-24.094118-24.094117s12.047059-24.094118 24.094118-24.094118h560.188235c12.047059 0 24.094118 12.047059 24.094118 24.094118-6.023529 12.047059-12.047059 24.094118-24.094118 24.094117z" /></svg>