<?xml version="1.0" standalone="no"?><!DOCTYPE svg PUBLIC "-//W3C//DTD SVG 1.1//EN" "http://www.w3.org/Graphics/SVG/1.1/DTD/svg11.dtd"><svg class="icon" width="200px" height="200.00px" viewBox="0 0 1024 1024" version="1.1" xmlns="http://www.w3.org/2000/svg"><path fill="#333333" d="M158.773895 325.847579h116.304842V209.542737H158.773895v116.304842z m38.750316-38.804211h38.80421v-38.750315h-38.80421v38.80421z m149.288421 38.804211h116.250947V209.542737H346.758737v116.304842z m38.750315-38.804211h38.750316v-38.750315h-38.80421v38.80421zM930.223158 544.875789a67.853474 67.853474 0 0 0 65.859368-67.907368V70.009263c0-36.702316-29.157053-66.775579-65.859368-67.799579H94.800842A67.853474 67.853474 0 0 0 26.947368 69.955368v407.066948a67.853474 67.853474 0 0 0 67.853474 67.853473h397.365895v50.391579a58.152421 58.152421 0 0 0-36.864 38.750316H158.773895a38.804211 38.804211 0 0 0-40.744421 38.804211v104.609684H65.751579a38.804211 38.804211 0 0 0-38.804211 38.80421v116.304843c0 21.396211 17.354105 38.750316 38.804211 38.750315h155.001263a38.804211 38.804211 0 0 0 38.804211-38.80421v-116.250948a38.804211 38.804211 0 0 0-38.804211-38.80421H156.833684v-106.60379h302.349474c5.928421 15.090526 17.839158 27.055158 32.983579 32.983579v73.620211H414.612211a38.804211 38.804211 0 0 0-38.804211 38.80421v116.304843c0 21.396211 17.408 38.750316 38.804211 38.750315h193.805473a38.804211 38.804211 0 0 0 38.804211-38.80421v-116.250948a38.804211 38.804211 0 0 0-38.804211-38.80421H530.917053V703.865263a58.206316 58.206316 0 0 0 21.342315-11.641263h1.886316a58.206316 58.206316 0 0 0 11.641263-17.461895h302.349474v102.723369h-65.859368a38.804211 38.804211 0 0 0-38.804211 38.80421v116.304842c0 21.396211 17.408 38.750316 38.804211 38.750316h155.055158a38.804211 38.804211 0 0 0 38.80421-38.80421v-116.250948a38.804211 38.804211 0 0 0-38.80421-38.80421h-50.391579v-104.663579a38.804211 38.804211 0 0 0-40.690527-38.750316h-298.522947a58.152421 58.152421 0 0 0-36.810105-38.804211v-50.337684h399.306105zM65.751579 932.540632h155.001263v-116.304843H65.751579v116.304843z m736.525474 0h155.055158v-116.304843h-155.055158v116.304843zM94.800842 506.071579a29.103158 29.103158 0 0 1-29.103158-29.103158V70.009263a29.103158 29.103158 0 0 1 29.103158-29.103158h835.368421a29.103158 29.103158 0 0 1 27.162948 29.103158v407.066948a29.103158 29.103158 0 0 1-27.109053 29.103157H94.800842z m416.714105 124.065684a19.402105 19.402105 0 1 1 0 38.804211 19.402105 19.402105 0 0 1 0-38.804211z m-96.902736 302.349474h193.805473v-116.250948H414.612211v116.304843zM722.782316 325.847579h116.304842V209.542737h-116.304842v116.304842z m38.80421-38.804211h38.750316v-38.750315h-38.80421v38.80421z m-226.789052 38.804211h116.304842V209.542737H534.797474v116.304842z m38.80421-38.804211h38.696421v-38.750315h-38.750316v38.80421z" /></svg>