<?xml version="1.0" standalone="no"?><!DOCTYPE svg PUBLIC "-//W3C//DTD SVG 1.1//EN" "http://www.w3.org/Graphics/SVG/1.1/DTD/svg11.dtd"><svg class="icon" width="200px" height="200.00px" viewBox="0 0 1024 1024" version="1.1" xmlns="http://www.w3.org/2000/svg"><path fill="#333333" d="M192.982198 79.20442c-5.657459 0-11.314917 5.657459-11.314917 11.314917v854.276243c0 5.657459 5.657459 11.314917 11.314917 11.314917h633.635359c5.657459 0 11.314917-5.657459 11.314917-11.314917v-622.320442h-198.01105c-22.629834 0-39.60221-16.972376-39.60221-39.60221v-203.668508h-407.337016z m633.635359 944.79558h-633.635359c-45.259669 0-79.20442-39.60221-79.20442-84.861878v-854.276244c0-45.259669 33.944751-84.861878 79.20442-84.861878h475.226519v243.270718h237.61326v690.209945c0 50.917127-33.944751 90.519337-79.20442 90.519337z m-350.762431-407.337017V463.911602h67.889503v152.751381h147.093922v73.546962h-147.093922v152.751381h-67.889503V690.209945h-147.093923v-73.546962h147.093923z m192.353591-611.005524l237.61326 243.270718-45.259669 50.917127-237.61326-243.270718 45.259669-50.917127z" /></svg>