<?xml version="1.0" standalone="no"?><!DOCTYPE svg PUBLIC "-//W3C//DTD SVG 1.1//EN" "http://www.w3.org/Graphics/SVG/1.1/DTD/svg11.dtd"><svg class="icon" width="200px" height="189.63px" viewBox="0 0 1080 1024" version="1.1" xmlns="http://www.w3.org/2000/svg"><path fill="#333333" d="M591.644444 1022.520889c-187.733333 0-352.711111-102.4-443.733333-261.688889-11.377778-17.066667 0-51.2 17.066667-56.888889 17.066667-11.377778 51.2 0 56.888889 17.066667 68.266667 136.533333 204.8 216.177778 358.4 216.177778 221.866667 0 403.911111-176.355556 403.911111-403.911112 0-221.866667-176.355556-403.911111-403.911111-403.911111-221.866667 0-403.911111 170.666667-403.911111 398.222223 0 22.755556-17.066667 45.511111-45.511112 45.511111-22.755556 0-45.511111-17.066667-45.511111-45.511111 0-273.066667 221.866667-494.933333 494.933334-494.933334 273.066667 0 494.933333 221.866667 494.933333 494.933334s-210.488889 494.933333-483.555556 494.933333zM142.222222 624.298667c-11.377778 0-22.755556-5.688889-34.133333-17.066667l-96.711111-96.711111c-17.066667-17.066667-11.377778-45.511111 0-62.577778 17.066667-17.066667 45.511111-11.377778 62.577778 0l96.711111 102.4c17.066667 17.066667 11.377778 45.511111 0 62.577778-11.377778 5.688889-22.755556 11.377778-28.444445 11.377778zM142.222222 624.298667c-11.377778 0-17.066667-5.688889-34.133333-17.066667-17.066667-17.066667-11.377778-45.511111 0-62.577778l102.4-96.711111c17.066667-17.066667 45.511111-11.377778 62.577778 0 17.066667 17.066667 11.377778 45.511111 0 62.577778l-102.4 102.4c-5.688889 5.688889-17.066667 11.377778-28.444445 11.377778zM449.422222 749.454222h-51.2c-11.377778 0-22.755556-11.377778-22.755555-22.755555s11.377778-22.755556 22.755555-22.755556h17.066667v-364.088889c5.688889-17.066667 17.066667-34.133333 34.133333-34.133333 11.377778 0 22.755556 11.377778 22.755556 22.755555v392.533334c0 17.066667-11.377778 28.444444-22.755556 28.444444zM489.244444 459.320889h-102.4c-11.377778 0-22.755556-11.377778-22.755555-22.755556s11.377778-22.755556 22.755555-22.755555h96.711112c11.377778 0 22.755556 11.377778 22.755555 22.755555 11.377778 5.688889 0 22.755556-17.066667 22.755556z m-102.4 153.6c-11.377778 0-17.066667-5.688889-22.755555-17.066667-5.688889-11.377778 0-34.133333 11.377778-39.822222l102.4-45.511111c11.377778-5.688889 34.133333 0 39.822222 11.377778 5.688889 11.377778 0 34.133333-11.377778 39.822222l-108.088889 45.511111c0 5.688889-11.377778 5.688889-11.377778 5.688889z m256 136.533333h-85.333333c-11.377778 0-22.755556-11.377778-22.755555-22.755555v-398.222223c0-11.377778 11.377778-22.755556 22.755555-22.755555s22.755556 11.377778 22.755556 22.755555v364.088889h51.2c11.377778 0 22.755556 11.377778 22.755555 22.755556 11.377778 17.066667 5.688889 34.133333-11.377778 34.133333zM642.844444 516.209778h-85.333333c-11.377778 0-22.755556-11.377778-22.755555-22.755556s11.377778-22.755556 22.755555-22.755555h73.955556c11.377778 0 22.755556 11.377778 22.755555 22.755555 17.066667 5.688889 5.688889 22.755556-11.377778 22.755556z m170.666667 233.244444h-102.4c-11.377778 0-22.755556-11.377778-22.755555-22.755555v-398.222223c0-11.377778 11.377778-22.755556 22.755555-22.755555s22.755556 11.377778 22.755556 22.755555v364.088889h68.266666c11.377778 0 22.755556 11.377778 22.755556 22.755556 5.688889 17.066667 0 34.133333-11.377778 34.133333zM728.177778 567.409778c-5.688889 0-17.066667-5.688889-22.755556-11.377778-5.688889-11.377778-5.688889-34.133333 5.688889-39.822222l85.333333-56.888889c11.377778-5.688889 34.133333-5.688889 39.822223 5.688889 5.688889 11.377778 5.688889 34.133333-5.688889 39.822222l-85.333334 56.888889c-5.688889 5.688889-11.377778 5.688889-17.066666 5.688889z" /></svg>