<?xml version="1.0" standalone="no"?><!DOCTYPE svg PUBLIC "-//W3C//DTD SVG 1.1//EN" "http://www.w3.org/Graphics/SVG/1.1/DTD/svg11.dtd"><svg class="icon" width="200px" height="179.02px" viewBox="0 0 1144 1024" version="1.1" xmlns="http://www.w3.org/2000/svg"><path fill="#333333" d="M1106.160941 497.784471L572.295529 0 38.430118 497.784471c-7.228235 7.228235-14.456471 28.912941 0 36.080941 0 7.228235 7.228235 7.228235 14.45647 7.228235h129.867294v440.018824h310.211765v-274.070589h173.116235v274.070589h310.211765V533.865412c0-14.456471-14.456471-28.912941-28.852706-28.912941-14.456471 0-28.852706 14.456471-28.852706 28.912941v396.769882h-209.197176V656.564706H435.260235v274.130823H226.002824V519.408941c0-14.456471-7.228235-21.624471-21.624471-21.62447H110.592l461.703529-425.622589 497.784471 461.70353c7.228235 7.228235 14.456471 7.228235 14.456471 7.228235 7.228235 0 14.456471 0 21.62447-7.228235 7.228235-7.228235 7.228235-28.912941 0-36.080941" /></svg>