<?xml version="1.0" standalone="no"?><!DOCTYPE svg PUBLIC "-//W3C//DTD SVG 1.1//EN" "http://www.w3.org/Graphics/SVG/1.1/DTD/svg11.dtd"><svg class="icon" width="200px" height="174.00px" viewBox="0 0 1177 1024" version="1.1" xmlns="http://www.w3.org/2000/svg"><path fill="#333333" d="M947.836025 992.198758c-69.962733 0-133.565217-57.242236-133.565218-133.565218s57.242236-133.565217 133.565218-133.565217 133.565217 57.242236 133.565217 133.565217-57.242236 133.565217-133.565217 133.565218z m0-203.527951c-38.161491 0-69.962733 31.801242-69.962733 69.962733s31.801242 69.962733 69.962733 69.962733c38.161491 0 69.962733-31.801242 69.962733-69.962733s-31.801242-69.962733-69.962733-69.962733z m-655.10559 203.527951c-69.962733 0-133.565217-57.242236-133.565218-133.565218s57.242236-133.565217 133.565218-133.565217c69.962733 0 133.565217 57.242236 133.565217 133.565217s-63.602484 133.565217-133.565217 133.565218z m0-203.527951c-38.161491 0-69.962733 31.801242-69.962733 69.962733s31.801242 69.962733 69.962733 69.962733c38.161491 0 69.962733-31.801242 69.962733-69.962733s-38.161491-69.962733-69.962733-69.962733z m477.018633 69.962733h-305.291925l-6.360249-25.440993c-12.720497-82.68323-89.043478-146.285714-171.726708-146.285715-44.521739 0-82.68323 19.080745-114.484472 44.521739l-38.16149 38.161491-108.124224-432.496894h1144.84472l-69.962732 419.776397-44.52174-31.801242c-31.801242-25.440994-69.962733-38.161491-108.124223-38.161491-89.043478 0-159.006211 63.602484-171.726708 146.285715l-6.360249 25.440993z m-248.049689-63.602484h197.167702c25.440994-101.763975 120.84472-178.086957 228.968944-178.086957 38.161491 0 69.962733 6.360248 101.763975 25.440994l44.521739-248.049689h-985.838509l63.602484 254.409938c38.161491-19.080745 76.322981-31.801242 120.844721-31.801243 108.124224 0 197.167702 76.322981 228.968944 178.086957z m445.217391-508.819876h-966.757764l76.322982-57.242236c31.801242-25.440994 76.322981-38.161491 120.84472-31.801242l38.161491 6.360248 6.360248-6.360248 25.440994-25.440994c44.521739-38.161491 76.322981-31.801242 95.403727-19.080745l6.360248 6.360248h50.881988l25.440994-76.322981v-12.720497l6.360248-6.360249 57.242236-44.521739-6.360248 44.521739h114.484472c6.360248-6.360248 12.720497-19.080745 25.440993-31.801242 6.360248-6.360248 31.801242-31.801242 63.602485-31.801242 38.161491 0 63.602484 31.801242 82.68323 63.602484H871.513043c69.962733 0 76.322981 0 82.68323 6.360249h6.360249c6.360248 0 25.440994 6.360248 38.16149 19.080745 31.801242 25.440994 50.881988 63.602484 44.52174 114.484472 0 0 6.360248 0 19.080745-6.360248 19.080745-6.360248 31.801242-6.360248 44.521739-6.360249 57.242236 0 63.602484 44.521739 63.602484 63.602485v31.801242H966.91677z m-667.826087-63.602484h674.186336l6.360248-31.801243c6.360248-31.801242-6.360248-44.521739-12.720497-50.881987-6.360248-6.360248-12.720497-6.360248-19.080745-6.360249l-19.080745-6.360248h-139.925466l-38.161491 6.360248-19.080745-31.801242c-25.440994-31.801242-31.801242-31.801242-31.801243-31.801242s-6.360248 0-12.720496 12.720497c-6.360248 6.360248-12.720497 12.720497-12.720497 19.080745l-19.080746 31.801242h-146.285714v6.360249l25.440994 82.68323h-190.807454l-19.080745-12.720497s-6.360248-6.360248-25.440994 12.720497c6.360248 0 0 0 0 0z" /></svg>